<?xml version="1.0" encoding="UTF-8" standalone="no"?>
<!DOCTYPE svg PUBLIC "-//W3C//DTD SVG 1.1//EN"
 "http://www.w3.org/Graphics/SVG/1.1/DTD/svg11.dtd">
<!-- Generated by graphviz version 2.43.0 (0)
 -->
<!-- Title: G Pages: 1 -->
<svg width="878pt" height="351pt"
 viewBox="0.00 0.00 877.77 351.28" xmlns="http://www.w3.org/2000/svg" xmlns:xlink="http://www.w3.org/1999/xlink">
<g id="graph0" class="graph" transform="scale(1 1) rotate(0) translate(4 347.28)">
<title>G</title><style>.edge>path:hover{stroke-width:8}</style>
<polygon fill="white" stroke="transparent" points="-4,4 -4,-347.28 873.77,-347.28 873.77,4 -4,4"/>
<!-- dworshak_secret -->
<g id="node1" class="node">
<title>dworshak_secret</title><style>.edge>path:hover{stroke-width:8}</style>
<polygon fill="blue" stroke="black" points="479.16,-196.07 380.16,-196.07 380.16,-160.07 479.16,-160.07 479.16,-196.07"/>
<text text-anchor="middle" x="429.66" y="-175.57" font-family="Helvetica,sans-Serif" font-size="10.00" fill="white">dworshak_secret</text>
</g>
<!-- dworshak_secret___main__ -->
<g id="node2" class="node">
<title>dworshak_secret___main__</title><style>.edge>path:hover{stroke-width:8}</style>
<ellipse fill="#b34c4c" stroke="black" cx="301.66" cy="-21.21" rx="72.25" ry="21.43"/>
<text text-anchor="middle" x="301.66" y="-24.21" font-family="Helvetica,sans-Serif" font-size="10.00" fill="#ffffff">dworshak_secret.</text>
<text text-anchor="middle" x="301.66" y="-13.21" font-family="Helvetica,sans-Serif" font-size="10.00" fill="#ffffff">__main__</text>
</g>
<!-- dworshak_secret__version -->
<g id="node3" class="node">
<title>dworshak_secret__version</title><style>.edge>path:hover{stroke-width:8}</style>
<ellipse fill="#c24747" stroke="black" cx="251.66" cy="-178.07" rx="72.25" ry="21.43"/>
<text text-anchor="middle" x="251.66" y="-181.07" font-family="Helvetica,sans-Serif" font-size="10.00" fill="#ffffff">dworshak_secret.</text>
<text text-anchor="middle" x="251.66" y="-170.07" font-family="Helvetica,sans-Serif" font-size="10.00" fill="#ffffff">_version</text>
</g>
<!-- dworshak_secret_cli -->
<g id="node5" class="node">
<title>dworshak_secret_cli</title><style>.edge>path:hover{stroke-width:8}</style>
<ellipse fill="#a83838" stroke="black" cx="301.66" cy="-99.64" rx="72.25" ry="21.43"/>
<text text-anchor="middle" x="301.66" y="-102.64" font-family="Helvetica,sans-Serif" font-size="10.00" fill="#ffffff">dworshak_secret.</text>
<text text-anchor="middle" x="301.66" y="-91.64" font-family="Helvetica,sans-Serif" font-size="10.00" fill="#ffffff">cli</text>
</g>
<!-- dworshak_secret__version&#45;&gt;dworshak_secret_cli -->
<g id="edge1" class="edge">
<title>dworshak_secret__version&#45;&gt;dworshak_secret_cli</title><style>.edge>path:hover{stroke-width:8}</style>
<path fill="none" stroke="black" d="M264.8,-156.99C270.37,-148.47 276.96,-138.4 283.02,-129.14"/>
<polygon fill="#c24747" stroke="black" points="286.07,-130.87 288.61,-120.59 280.21,-127.04 286.07,-130.87"/>
</g>
<!-- dworshak_secret_actions -->
<g id="node4" class="node">
<title>dworshak_secret_actions</title><style>.edge>path:hover{stroke-width:8}</style>
<polygon fill="blue" stroke="black" points="799.66,-196.07 697.66,-196.07 697.66,-160.07 799.66,-160.07 799.66,-196.07"/>
<text text-anchor="middle" x="748.66" y="-181.07" font-family="Helvetica,sans-Serif" font-size="10.00" fill="white">dworshak_secret.</text>
<text text-anchor="middle" x="748.66" y="-170.07" font-family="Helvetica,sans-Serif" font-size="10.00" fill="white">actions</text>
</g>
<!-- dworshak_secret_actions&#45;&gt;dworshak_secret_cli -->
<g id="edge2" class="edge">
<title>dworshak_secret_actions&#45;&gt;dworshak_secret_cli</title><style>.edge>path:hover{stroke-width:8}</style>
<path fill="none" stroke="black" d="M700.42,-159.98C696.46,-158.83 692.51,-157.77 688.66,-156.85 583.28,-131.67 458.9,-116.04 380.15,-107.84"/>
<polygon fill="blue" stroke="black" points="380.13,-104.32 369.83,-106.78 379.42,-111.28 380.13,-104.32"/>
</g>
<!-- dworshak_secret_core -->
<g id="node6" class="node">
<title>dworshak_secret_core</title><style>.edge>path:hover{stroke-width:8}</style>
<polygon fill="blue" stroke="black" points="658.66,-271.28 556.66,-271.28 556.66,-235.28 658.66,-235.28 658.66,-271.28"/>
<text text-anchor="middle" x="607.66" y="-256.28" font-family="Helvetica,sans-Serif" font-size="10.00" fill="white">dworshak_secret.</text>
<text text-anchor="middle" x="607.66" y="-245.28" font-family="Helvetica,sans-Serif" font-size="10.00" fill="white">core</text>
</g>
<!-- dworshak_secret_key -->
<g id="node8" class="node">
<title>dworshak_secret_key</title><style>.edge>path:hover{stroke-width:8}</style>
<polygon fill="blue" stroke="black" points="838.66,-117.64 736.66,-117.64 736.66,-81.64 838.66,-81.64 838.66,-117.64"/>
<text text-anchor="middle" x="787.66" y="-102.64" font-family="Helvetica,sans-Serif" font-size="10.00" fill="white">dworshak_secret.</text>
<text text-anchor="middle" x="787.66" y="-91.64" font-family="Helvetica,sans-Serif" font-size="10.00" fill="white">key</text>
</g>
<!-- dworshak_secret_actions&#45;&gt;dworshak_secret_key -->
<g id="edge4" class="edge">
<title>dworshak_secret_actions&#45;&gt;dworshak_secret_key</title><style>.edge>path:hover{stroke-width:8}</style>
<path fill="none" stroke="black" d="M757.51,-159.72C762.48,-149.98 768.79,-137.63 774.34,-126.74"/>
<polygon fill="blue" stroke="black" points="777.55,-128.15 778.98,-117.65 771.32,-124.97 777.55,-128.15"/>
</g>
<!-- dworshak_secret_cli&#45;&gt;dworshak_secret___main__ -->
<g id="edge5" class="edge">
<title>dworshak_secret_cli&#45;&gt;dworshak_secret___main__</title><style>.edge>path:hover{stroke-width:8}</style>
<path fill="none" stroke="black" d="M301.66,-78.16C301.66,-70.3 301.66,-61.16 301.66,-52.57"/>
<polygon fill="#a83838" stroke="black" points="305.16,-52.49 301.66,-42.49 298.16,-52.49 305.16,-52.49"/>
</g>
<!-- dworshak_secret_core&#45;&gt;dworshak_secret -->
<g id="edge6" class="edge">
<title>dworshak_secret_core&#45;&gt;dworshak_secret</title><style>.edge>path:hover{stroke-width:8}</style>
<path fill="none" stroke="black" d="M565.93,-235.11C540.38,-224.6 507.5,-211.08 480.44,-199.95"/>
<polygon fill="blue" stroke="black" points="481.71,-196.69 471.13,-196.12 479.05,-203.16 481.71,-196.69"/>
</g>
<!-- dworshak_secret_core&#45;&gt;dworshak_secret_actions -->
<g id="edge7" class="edge">
<title>dworshak_secret_core&#45;&gt;dworshak_secret_actions</title><style>.edge>path:hover{stroke-width:8}</style>
<path fill="none" stroke="black" d="M649.8,-230.4C667.79,-221.06 688.74,-210.18 706.72,-200.85"/>
<polygon fill="blue" stroke="black" points="647.98,-227.4 640.72,-235.11 651.21,-233.61 647.98,-227.4"/>
<polygon fill="blue" stroke="black" points="708.55,-203.84 715.81,-196.12 705.32,-197.63 708.55,-203.84"/>
</g>
<!-- dworshak_secret_core&#45;&gt;dworshak_secret_cli -->
<g id="edge8" class="edge">
<title>dworshak_secret_core&#45;&gt;dworshak_secret_cli</title><style>.edge>path:hover{stroke-width:8}</style>
<path fill="none" stroke="black" d="M556.32,-251.35C505.28,-248.14 426.71,-236.82 370.66,-199.28 357.07,-190.18 334.3,-155.32 318.66,-129.61"/>
<polygon fill="blue" stroke="black" points="321.61,-127.72 313.45,-120.96 315.61,-131.33 321.61,-127.72"/>
</g>
<!-- dworshak_secret_core&#45;&gt;dworshak_secret_key -->
<g id="edge9" class="edge">
<title>dworshak_secret_core&#45;&gt;dworshak_secret_key</title><style>.edge>path:hover{stroke-width:8}</style>
<path fill="none" stroke="black" d="M668.85,-244.39C721.5,-236.19 791.59,-221.44 808.66,-199.28 824.67,-178.5 814.75,-148.26 803.76,-126.74"/>
<polygon fill="blue" stroke="black" points="668.28,-240.93 658.91,-245.89 669.32,-247.86 668.28,-240.93"/>
<polygon fill="blue" stroke="black" points="806.76,-124.93 798.9,-117.83 800.62,-128.28 806.76,-124.93"/>
</g>
<!-- dworshak_secret_legacy -->
<g id="node9" class="node">
<title>dworshak_secret_legacy</title><style>.edge>path:hover{stroke-width:8}</style>
<ellipse fill="#b34c4c" stroke="black" cx="607.66" cy="-178.07" rx="72.25" ry="21.43"/>
<text text-anchor="middle" x="607.66" y="-181.07" font-family="Helvetica,sans-Serif" font-size="10.00" fill="#ffffff">dworshak_secret.</text>
<text text-anchor="middle" x="607.66" y="-170.07" font-family="Helvetica,sans-Serif" font-size="10.00" fill="#ffffff">legacy</text>
</g>
<!-- dworshak_secret_core&#45;&gt;dworshak_secret_legacy -->
<g id="edge10" class="edge">
<title>dworshak_secret_core&#45;&gt;dworshak_secret_legacy</title><style>.edge>path:hover{stroke-width:8}</style>
<path fill="none" stroke="black" d="M607.66,-234.93C607.66,-227.35 607.66,-218.24 607.66,-209.59"/>
<polygon fill="blue" stroke="black" points="611.16,-209.41 607.66,-199.41 604.16,-209.41 611.16,-209.41"/>
</g>
<!-- dworshak_secret_errors -->
<g id="node7" class="node">
<title>dworshak_secret_errors</title><style>.edge>path:hover{stroke-width:8}</style>
<ellipse fill="#c24747" stroke="black" cx="89.66" cy="-178.07" rx="72.25" ry="21.43"/>
<text text-anchor="middle" x="89.66" y="-181.07" font-family="Helvetica,sans-Serif" font-size="10.00" fill="#ffffff">dworshak_secret.</text>
<text text-anchor="middle" x="89.66" y="-170.07" font-family="Helvetica,sans-Serif" font-size="10.00" fill="#ffffff">errors</text>
</g>
<!-- dworshak_secret_errors&#45;&gt;dworshak_secret_cli -->
<g id="edge11" class="edge">
<title>dworshak_secret_errors&#45;&gt;dworshak_secret_cli</title><style>.edge>path:hover{stroke-width:8}</style>
<path fill="none" stroke="black" d="M133.59,-161.23C166.74,-149.28 212.39,-132.82 247.75,-120.08"/>
<polygon fill="#c24747" stroke="black" points="249.21,-123.27 257.43,-116.59 246.83,-116.69 249.21,-123.27"/>
</g>
<!-- dworshak_secret_security -->
<g id="node12" class="node">
<title>dworshak_secret_security</title><style>.edge>path:hover{stroke-width:8}</style>
<ellipse fill="#b34c4c" stroke="black" cx="787.66" cy="-21.21" rx="72.25" ry="21.43"/>
<text text-anchor="middle" x="787.66" y="-24.21" font-family="Helvetica,sans-Serif" font-size="10.00" fill="#ffffff">dworshak_secret.</text>
<text text-anchor="middle" x="787.66" y="-13.21" font-family="Helvetica,sans-Serif" font-size="10.00" fill="#ffffff">security</text>
</g>
<!-- dworshak_secret_key&#45;&gt;dworshak_secret_security -->
<g id="edge13" class="edge">
<title>dworshak_secret_key&#45;&gt;dworshak_secret_security</title><style>.edge>path:hover{stroke-width:8}</style>
<path fill="none" stroke="black" d="M787.66,-81.3C787.66,-72.82 787.66,-62.37 787.66,-52.63"/>
<polygon fill="blue" stroke="black" points="791.16,-52.46 787.66,-42.46 784.16,-52.46 791.16,-52.46"/>
</g>
<!-- dworshak_secret_vault -->
<g id="node13" class="node">
<title>dworshak_secret_vault</title><style>.edge>path:hover{stroke-width:8}</style>
<polygon fill="blue" stroke="black" points="558.66,-39.21 456.66,-39.21 456.66,-3.21 558.66,-3.21 558.66,-39.21"/>
<text text-anchor="middle" x="507.66" y="-24.21" font-family="Helvetica,sans-Serif" font-size="10.00" fill="white">dworshak_secret.</text>
<text text-anchor="middle" x="507.66" y="-13.21" font-family="Helvetica,sans-Serif" font-size="10.00" fill="white">vault</text>
</g>
<!-- dworshak_secret_key&#45;&gt;dworshak_secret_vault -->
<g id="edge14" class="edge">
<title>dworshak_secret_key&#45;&gt;dworshak_secret_vault</title><style>.edge>path:hover{stroke-width:8}</style>
<path fill="none" stroke="black" d="M726.87,-82.05C679.99,-69.25 615.45,-51.63 568.54,-38.83"/>
<polygon fill="blue" stroke="black" points="726.06,-85.45 736.63,-84.71 727.91,-78.7 726.06,-85.45"/>
<polygon fill="blue" stroke="black" points="569.38,-35.43 558.81,-36.18 567.54,-42.19 569.38,-35.43"/>
</g>
<!-- dworshak_secret_paths -->
<g id="node10" class="node">
<title>dworshak_secret_paths</title><style>.edge>path:hover{stroke-width:8}</style>
<polygon fill="blue" stroke="black" points="758.66,-343.28 656.66,-343.28 656.66,-307.28 758.66,-307.28 758.66,-343.28"/>
<text text-anchor="middle" x="707.66" y="-328.28" font-family="Helvetica,sans-Serif" font-size="10.00" fill="white">dworshak_secret.</text>
<text text-anchor="middle" x="707.66" y="-317.28" font-family="Helvetica,sans-Serif" font-size="10.00" fill="white">paths</text>
</g>
<!-- dworshak_secret_paths&#45;&gt;dworshak_secret_actions -->
<g id="edge15" class="edge">
<title>dworshak_secret_paths&#45;&gt;dworshak_secret_actions</title><style>.edge>path:hover{stroke-width:8}</style>
<path fill="none" stroke="black" d="M710.49,-307.01C713.65,-288.92 719.3,-259.79 726.66,-235.28 729.58,-225.55 733.45,-215.13 737.12,-205.93"/>
<polygon fill="blue" stroke="black" points="740.42,-207.11 740.98,-196.53 733.94,-204.45 740.42,-207.11"/>
</g>
<!-- dworshak_secret_paths&#45;&gt;dworshak_secret_core -->
<g id="edge16" class="edge">
<title>dworshak_secret_paths&#45;&gt;dworshak_secret_core</title><style>.edge>path:hover{stroke-width:8}</style>
<path fill="none" stroke="black" d="M683.2,-307.16C670.37,-298.17 654.47,-287.04 640.57,-277.31"/>
<polygon fill="blue" stroke="black" points="642.42,-274.34 632.22,-271.47 638.4,-280.07 642.42,-274.34"/>
</g>
<!-- dworshak_secret_paths&#45;&gt;dworshak_secret_key -->
<g id="edge17" class="edge">
<title>dworshak_secret_paths&#45;&gt;dworshak_secret_key</title><style>.edge>path:hover{stroke-width:8}</style>
<path fill="none" stroke="black" d="M758.7,-317.22C788.58,-310.43 824.66,-297.15 846.66,-271.28 873.77,-239.41 871.9,-220.44 865.66,-179.07"/>
</g>
<!-- dworshak_secret_registry -->
<g id="node11" class="node">
<title>dworshak_secret_registry</title><style>.edge>path:hover{stroke-width:8}</style>
<polygon fill="blue" stroke="black" points="837.66,-271.28 735.66,-271.28 735.66,-235.28 837.66,-235.28 837.66,-271.28"/>
<text text-anchor="middle" x="786.66" y="-256.28" font-family="Helvetica,sans-Serif" font-size="10.00" fill="white">dworshak_secret.</text>
<text text-anchor="middle" x="786.66" y="-245.28" font-family="Helvetica,sans-Serif" font-size="10.00" fill="white">registry</text>
</g>
<!-- dworshak_secret_paths&#45;&gt;dworshak_secret_registry -->
<g id="edge18" class="edge">
<title>dworshak_secret_paths&#45;&gt;dworshak_secret_registry</title><style>.edge>path:hover{stroke-width:8}</style>
<path fill="none" stroke="black" d="M734.71,-300.31C742.76,-293.18 751.58,-285.37 759.62,-278.24"/>
<polygon fill="blue" stroke="black" points="732.35,-297.72 727.19,-306.98 737,-302.96 732.35,-297.72"/>
<polygon fill="blue" stroke="black" points="762.2,-280.64 767.36,-271.38 757.55,-275.4 762.2,-280.64"/>
</g>
<!-- dworshak_secret_paths&#45;&gt;dworshak_secret_vault -->
<g id="edge19" class="edge">
<title>dworshak_secret_paths&#45;&gt;dworshak_secret_vault</title><style>.edge>path:hover{stroke-width:8}</style>
<path fill="none" stroke="black" d="M656.64,-323.25C509.88,-319.11 91.85,-298.66 8.66,-199.28 -3.44,-184.82 -2.11,-172.33 8.66,-156.85 66.07,-74.41 123.94,-105.6 220.66,-78.43 262.19,-66.76 375,-45.82 446.19,-33.05"/>
<polygon fill="blue" stroke="black" points="447.15,-36.44 456.38,-31.23 445.92,-29.55 447.15,-36.44"/>
</g>
<!-- dworshak_secret_registry&#45;&gt;dworshak_secret_key -->
<g id="edge20" class="edge">
<title>dworshak_secret_registry&#45;&gt;dworshak_secret_key</title><style>.edge>path:hover{stroke-width:8}</style>
<path fill="none" stroke="black" d="M825.93,-235.13C847.58,-222.74 869.4,-203.84 865.66,-179.07"/>
<path fill="none" stroke="black" d="M865.66,-177.07C862.31,-154.83 845.33,-136.8 828.06,-123.84"/>
<polygon fill="blue" stroke="black" points="829.81,-120.79 819.62,-117.89 825.78,-126.52 829.81,-120.79"/>
</g>
<!-- dworshak_secret_vault&#45;&gt;dworshak_secret_actions -->
<g id="edge22" class="edge">
<title>dworshak_secret_vault&#45;&gt;dworshak_secret_actions</title><style>.edge>path:hover{stroke-width:8}</style>
<path fill="none" stroke="black" d="M507.66,-100.64C547.82,-174.69 608.52,-130.91 688.66,-156.85 691.8,-157.87 695.03,-158.92 698.28,-159.99"/>
</g>
<!-- dworshak_secret_vault&#45;&gt;dworshak_secret_core -->
<g id="edge23" class="edge">
<title>dworshak_secret_vault&#45;&gt;dworshak_secret_core</title><style>.edge>path:hover{stroke-width:8}</style>
<path fill="none" stroke="black" d="M503.1,-39.5C500.34,-53.15 498.28,-72.6 503.62,-89.23"/>
<polygon fill="blue" stroke="black" points="500.49,-90.84 507.66,-98.64 506.93,-88.07 500.49,-90.84"/>
<path fill="none" stroke="black" d="M507.66,-100.64C528.95,-139.89 501.79,-162.2 526.66,-199.28 536.96,-214.63 553.36,-226.58 568.72,-235.21"/>
</g>
</g>
</svg>
